<svg width="35" height="35" viewBox="0 0 35 35" fill="none" xmlns="http://www.w3.org/2000/svg">
<rect x="1.29498" y="0.315" width="33.39" height="33.39" rx="16.695" fill="black"/>
<rect x="1.29498" y="0.315" width="33.39" height="33.39" rx="16.695" stroke="black" stroke-width="0.63"/>
<path opacity="0.7" d="M17.5315 21.6321L17.6034 21.7177V26.0933L17.5315 26.2983L11.69 18.2634L17.5315 21.6321Z" fill="white"/>
<path d="M17.5327 26.2983V21.6321L23.3707 18.2634L17.5327 26.2983Z" fill="white"/>
<path opacity="0.8" d="M11.6904 17.1825L17.5273 14.5907L17.5264 14.3573L17.5283 7.72156L11.6904 17.1825Z" fill="white"/>
<path d="M17.5328 14.5909L23.3707 17.1827L17.5328 7.7218V14.5909Z" fill="white"/>
<path opacity="0.58" d="M17.5312 20.5524L11.6933 17.1821L17.5312 14.5905V20.5524Z" fill="white"/>
<path opacity="0.81" d="M23.3707 17.1821L17.5327 20.5524V14.5905L23.3707 17.1821Z" fill="white"/>
</svg>
