<svg width="18" height="14" viewBox="0 0 18 14" fill="none" xmlns="http://www.w3.org/2000/svg">
<path d="M15.6692 2.08389C14.4551 1.05722 12.998 0.543888 11.4601 0.458336L11.2173 0.715003C12.5933 1.05722 13.8075 1.74167 14.9407 2.68278C13.5647 1.91278 12.0267 1.39945 10.4078 1.22834C9.92214 1.14278 9.51743 1.14278 9.03178 1.14278C8.54613 1.14278 8.14142 1.14278 7.65577 1.22834C6.03685 1.39945 4.49891 1.91278 3.12285 2.68278C4.25607 1.74167 5.47024 1.05722 6.84629 0.715003L6.60346 0.458336C5.06552 0.543888 3.60852 1.05722 2.39435 2.08389C1.01831 4.82167 0.289804 7.90167 0.208862 11.0672C1.42302 12.4361 3.12285 13.2917 4.90363 13.2917C4.90363 13.2917 5.47024 12.6072 5.87495 12.0083C4.82268 11.7517 3.85135 11.1528 3.2038 10.2117C3.77041 10.5539 4.33702 10.8961 4.90363 11.1528C5.63212 11.495 6.36062 11.6661 7.08911 11.8372C7.73671 11.9228 8.38425 12.0083 9.03178 12.0083C9.67931 12.0083 10.3268 11.9228 10.9745 11.8372C11.7029 11.6661 12.4314 11.495 13.1599 11.1528C13.7266 10.8961 14.2932 10.5539 14.8598 10.2117C14.2122 11.1528 13.2408 11.7517 12.1886 12.0083C12.5933 12.6072 13.1599 13.2917 13.1599 13.2917C14.9407 13.2917 16.6406 12.4361 17.8547 11.0672C17.7738 7.90167 17.0453 4.82167 15.6692 2.08389ZM6.36062 9.52719C5.55118 9.52719 4.82268 8.75719 4.82268 7.81614C4.82268 6.875 5.55118 6.105 6.36062 6.105C7.17007 6.105 7.8986 6.875 7.8986 7.81614C7.8986 8.75719 7.17007 9.52719 6.36062 9.52719ZM11.7029 9.52719C10.8935 9.52719 10.165 8.75719 10.165 7.81614C10.165 6.875 10.8935 6.105 11.7029 6.105C12.5124 6.105 13.2408 6.875 13.2408 7.81614C13.2408 8.75719 12.5124 9.52719 11.7029 9.52719Z" fill="black"/>
</svg>
