<svg width="43" height="45" viewBox="0 0 43 45" fill="none" xmlns="http://www.w3.org/2000/svg">
<g filter="url(#filter0_d_27_308)">
<rect x="1.29938" y="1.33832" width="39.2" height="39.2" rx="19.6" fill="white" shape-rendering="crispEdges"/>
<rect x="0.949377" y="0.988318" width="39.9" height="39.9" rx="19.95" stroke="#E8E8E8" stroke-width="0.7" shape-rendering="crispEdges"/>
<g clip-path="url(#clip0_27_308)">
<path d="M20.9017 12.3877L20.787 12.7774V24.0841L20.9017 24.1985L26.15 21.0962L20.9017 12.3877Z" fill="#343434"/>
<path d="M20.9016 12.3877L15.6532 21.0962L20.9016 24.1985V18.7106V12.3877Z" fill="#8C8C8C"/>
<path d="M20.9022 25.192L20.8376 25.2708V29.2984L20.9022 29.4872L26.1538 22.0912L20.9022 25.192Z" fill="#3C3C3B"/>
<path d="M20.9016 29.4872V25.192L15.6532 22.0912L20.9016 29.4872Z" fill="#8C8C8C"/>
<path d="M20.9018 24.199L26.1501 21.0967L20.9018 18.7111V24.199Z" fill="#141414"/>
<path d="M15.6532 21.096L20.9016 24.1983V18.7104L15.6532 21.096Z" fill="#393939"/>
</g>
</g>
<defs>
<filter id="filter0_d_27_308" x="0.599365" y="0.638306" width="42" height="44.1" filterUnits="userSpaceOnUse" color-interpolation-filters="sRGB">
<feFlood flood-opacity="0" result="BackgroundImageFix"/>
<feColorMatrix in="SourceAlpha" type="matrix" values="0 0 0 0 0 0 0 0 0 0 0 0 0 0 0 0 0 0 127 0" result="hardAlpha"/>
<feOffset dx="1.4" dy="3.5"/>
<feComposite in2="hardAlpha" operator="out"/>
<feColorMatrix type="matrix" values="0 0 0 0 0.850868 0 0 0 0 0.799226 0 0 0 0 0.782013 0 0 0 0.49 0"/>
<feBlend mode="normal" in2="BackgroundImageFix" result="effect1_dropShadow_27_308"/>
<feBlend mode="normal" in="SourceGraphic" in2="effect1_dropShadow_27_308" result="shape"/>
</filter>
<clipPath id="clip0_27_308">
<rect width="10.5" height="17.0998" fill="white" transform="translate(15.6494 12.3884)"/>
</clipPath>
</defs>
</svg>
