<svg width="83" height="83" viewBox="0 0 83 83" fill="none" xmlns="http://www.w3.org/2000/svg">
<g clip-path="url(#clip0_27_439)">
<circle cx="67" cy="57" r="15" fill="#4884F1"/>
<path d="M1.5 66.75L1.75 62.75H39.5L42.5 63.5L43 67.75L44 71.75L47 76L48 78L13 78.25L5.5 75.5L3 72L1.5 66.75Z" fill="#0090FF" fill-opacity="0.11"/>
<path d="M83.0013 56.1852C83.0013 65.8392 75.1474 73.6931 65.4935 73.6931C65.1253 73.6931 64.7603 73.6802 64.3976 73.6577C61.9989 77.1257 58.118 79.1723 53.8612 79.1723L12.8185 79.1722C5.74936 79.1722 -0.00195312 73.4209 -0.00195312 66.3518V62.7434C-0.00195312 62.3994 0.134682 62.0695 0.377893 61.8263C0.621104 61.5831 0.950969 61.4465 1.29492 61.4465H10.4295V5.125C10.4295 4.78105 10.5661 4.45118 10.8093 4.20797C11.0525 3.96476 11.3824 3.82813 11.7263 3.82812H65.3847C65.7287 3.82813 66.0585 3.96476 66.3017 4.20797C66.5449 4.45118 66.6816 4.78105 66.6816 5.125V38.7186C75.7834 39.3315 83.0013 46.9307 83.0013 56.1852ZM46.1375 76.5784C43.0431 74.2358 41.0406 70.5232 41.0406 66.3518V64.0402H2.5918V66.3518C2.5918 71.9907 7.17949 76.5784 12.8185 76.5784H46.1375ZM61.4441 73.2194C53.7363 71.3872 47.9857 64.4455 47.9857 56.1852C47.9857 55.8951 47.9931 55.6068 48.0072 55.3201C47.9857 47.25 55.5124 41.8097 55.5124 41.8097C57.9841 40.0884 60.9181 38.9871 64.0877 38.734V6.42187H13.0232V61.4465H42.3375C42.6814 61.4465 43.0113 61.5831 43.2545 61.8263C43.4977 62.0695 43.6343 62.3994 43.6343 62.7434V66.3518C43.6343 71.9907 48.222 76.5784 53.8612 76.5784L53.8636 76.5786C56.8075 76.5778 59.5259 75.3496 61.4441 73.2194ZM80.4075 56.1852C80.4075 47.9616 73.7171 41.2712 65.4935 41.2712C57.2698 41.2712 50.5794 47.9616 50.5794 56.1852C50.5794 64.4089 57.2698 71.0993 65.4935 71.0993C73.7171 71.0993 80.4075 64.4087 80.4075 56.1852Z" fill="black"/>
<path d="M58.7782 58.8689L57.8434 59.3048L57.4028 58.37L58.3387 57.935C58.5867 57.8194 58.7786 57.6101 58.8722 57.3531C58.9657 57.0961 58.9533 56.8125 58.8375 56.5647C58.7218 56.3169 58.5122 56.1252 58.255 56.0317C57.9977 55.9383 57.7138 55.9507 57.4658 56.0664L55.5952 56.9383C55.3473 57.054 55.1555 57.2633 55.0621 57.5202C54.9686 57.777 54.9811 58.0605 55.0968 58.3081L56.4061 61.1127L57.7134 63.9121C57.8227 64.1351 58.0076 64.3121 58.2352 64.4118C58.4629 64.5114 58.7185 64.5272 58.9567 64.4563C59.0965 64.4124 59.2254 64.3392 59.3347 64.2416C59.444 64.144 59.5312 64.0243 59.5906 63.8904C59.65 63.7565 59.6801 63.6115 59.6789 63.4651C59.6778 63.3186 59.6454 63.1741 59.584 63.0412L58.7111 61.1725L59.6469 60.7365C59.8906 60.6183 60.078 60.409 60.1686 60.154C60.2591 59.8989 60.2457 59.6185 60.1311 59.3733C60.0165 59.1281 59.8099 58.9378 59.556 58.8434C59.3021 58.749 59.0213 58.7581 58.7741 58.8689H58.7782ZM66.6692 59.1111L64.8171 57.9907C65.1642 57.5333 65.3479 56.973 65.339 56.3992C65.3301 55.8254 65.129 55.271 64.7679 54.8247C64.4068 54.3783 63.9065 54.0656 63.3467 53.9364C62.7869 53.8073 62.2 53.8692 61.6795 54.1121L60.2753 54.7646C60.1523 54.8217 60.0418 54.9026 59.9502 55.0024C59.8585 55.1023 59.7875 55.2192 59.7411 55.3466C59.6947 55.4739 59.6739 55.6091 59.6799 55.7445C59.6859 55.8798 59.7185 56.0127 59.7759 56.1354L62.3925 61.7394C62.5037 61.9667 62.6933 62.1463 62.9264 62.2452C63.1596 62.344 63.4206 62.3555 63.6616 62.2774C63.7977 62.2295 63.9223 62.1539 64.0276 62.0553C64.1329 61.9567 64.2165 61.8373 64.2731 61.7047C64.3296 61.5721 64.358 61.4291 64.3563 61.285C64.3545 61.1408 64.3228 60.9986 64.2631 60.8674L63.741 59.7429L65.5972 60.8767C65.7581 60.975 65.943 61.0271 66.1316 61.0272C66.3548 61.0222 66.5704 60.9458 66.7468 60.8091C66.9231 60.6724 67.0508 60.4828 67.1111 60.2681C67.1713 60.0534 67.1609 59.825 67.0813 59.6167C67.0017 59.4084 66.8573 59.2311 66.6692 59.1111ZM62.9445 55.9592C63.0398 55.9943 63.1226 56.0567 63.1825 56.1387C63.2425 56.2206 63.2768 56.3184 63.2813 56.4198C63.2859 56.5211 63.2603 56.6216 63.2079 56.7085C63.1555 56.7955 63.0786 56.865 62.9868 56.9084L62.5184 57.127L62.0829 56.1931L62.5524 55.9746C62.6135 55.9462 62.6796 55.9302 62.7469 55.9275C62.8142 55.9249 62.8814 55.9356 62.9445 55.9592ZM70.3732 56.8796L69.4374 57.3156L69.001 56.3807L69.9368 55.9458C70.1853 55.8299 70.3775 55.6201 70.4711 55.3626C70.5648 55.1052 70.5522 54.8211 70.4362 54.5729C70.3201 54.3247 70.1102 54.1327 69.8524 54.0391C69.5947 53.9455 69.3103 53.9581 69.0618 54.074L68.1271 54.51L67.6917 53.5751L68.6264 53.1402C68.8673 53.0204 69.0518 52.8113 69.1405 52.5576C69.2293 52.3038 69.2153 52.0255 69.1016 51.7819C68.9879 51.5383 68.7834 51.3487 68.5318 51.2536C68.2802 51.1584 68.0013 51.1652 67.7546 51.2725L65.884 52.1425C65.6361 52.2581 65.4443 52.4674 65.3509 52.7243C65.2574 52.9812 65.2699 53.2646 65.3856 53.5123L68.0033 59.1245C68.119 59.3721 68.3285 59.5637 68.5857 59.657C68.8428 59.7504 69.1266 59.7379 69.3745 59.6223L71.2451 58.7513C71.4935 58.6359 71.6859 58.4265 71.7798 58.1693C71.8738 57.9121 71.8616 57.6282 71.746 57.38C71.6304 57.1318 71.4208 56.9396 71.1634 56.8458C70.9059 56.7519 70.6217 56.7641 70.3732 56.8796ZM75.0461 54.7017L74.1113 55.1377L73.6749 54.2028L74.6107 53.7679C74.7335 53.7106 74.8439 53.6298 74.9354 53.5299C75.027 53.4301 75.0979 53.3132 75.1442 53.1859C75.1906 53.0587 75.2113 52.9236 75.2054 52.7883C75.1994 52.653 75.1669 52.5203 75.1096 52.3976C75.0523 52.2749 74.9713 52.1646 74.8714 52.0732C74.7714 51.9817 74.6544 51.9109 74.527 51.8646C74.3996 51.8183 74.2644 51.7975 74.129 51.8035C73.9936 51.8094 73.8607 51.842 73.7378 51.8992L72.8031 52.3352L72.3666 51.4003L73.3024 50.9654C73.5505 50.8498 73.7424 50.6404 73.836 50.3834C73.9295 50.1265 73.917 49.8429 73.8013 49.5951C73.6855 49.3473 73.476 49.1555 73.2187 49.0621C72.9615 48.9686 72.6776 48.9811 72.4296 49.0967L70.5589 49.9677C70.3111 50.0833 70.1193 50.2926 70.0258 50.5495C69.9324 50.8064 69.9449 51.0898 70.0606 51.3375L71.371 54.1451L72.6772 56.9435C72.793 57.1911 73.0024 57.3827 73.2596 57.4761C73.5167 57.5694 73.8005 57.5569 74.0484 57.4413L75.919 56.5693C76.1627 56.4511 76.35 56.2419 76.4406 55.9868C76.5312 55.7318 76.5177 55.4514 76.4031 55.2062C76.2885 54.961 76.082 54.7706 75.8281 54.6762C75.5742 54.5818 75.2933 54.591 75.0461 54.7017Z" fill="white"/>
<path d="M41.1202 13.3798C41.3634 13.6231 41.5 13.9529 41.5 14.2969C41.5 14.6408 41.3634 14.9707 41.1202 15.2139C40.8769 15.4571 40.5471 15.5937 40.2031 15.5937H19.4293C19.0853 15.5937 18.7555 15.4571 18.5123 15.2139C18.269 14.9707 18.1324 14.6408 18.1324 14.2969C18.1324 13.9529 18.269 13.6231 18.5123 13.3798C18.7555 13.1366 19.0853 13 19.4293 13H40.2031C40.5471 13 40.8769 13.1366 41.1202 13.3798Z" fill="black"/>
<path d="M30.5245 18.0301H19.4293C19.0853 18.0301 18.7555 18.1667 18.5123 18.4099C18.269 18.6531 18.1324 18.983 18.1324 19.327C18.1324 19.6709 18.269 20.0008 18.5123 20.244C18.7555 20.4872 19.0853 20.6238 19.4293 20.6238H30.5245C30.8685 20.6238 31.1984 20.4872 31.4416 20.244C31.6848 20.0008 31.8214 19.6709 31.8214 19.327C31.8214 18.983 31.6848 18.6531 31.4416 18.4099C31.1984 18.1667 30.8685 18.0301 30.5245 18.0301Z" fill="black"/>
<path d="M55.9872 28.7607C56.2304 29.0039 56.3671 29.3338 56.3671 29.6777C56.3671 30.0217 56.2304 30.3516 55.9872 30.5948C55.744 30.838 55.4141 30.9746 55.0702 30.9746H19.2963C18.9524 30.9746 18.6225 30.838 18.3793 30.5948C18.1361 30.3516 17.9995 30.0217 17.9995 29.6777C17.9995 29.3338 18.1361 29.0039 18.3793 28.7607C18.6225 28.5175 18.9524 28.3809 19.2963 28.3809H55.0702C55.4141 28.3809 55.744 28.5175 55.9872 28.7607Z" fill="black"/>
<path d="M55.3916 33.411H19.2963C18.9524 33.411 18.6225 33.5476 18.3793 33.7908C18.1361 34.034 17.9995 34.3639 17.9995 34.7078C17.9995 35.0518 18.1361 35.3816 18.3793 35.6249C18.6225 35.8681 18.9524 36.0047 19.2963 36.0047H55.3916C55.7356 36.0047 56.0654 35.8681 56.3086 35.6249C56.5518 35.3816 56.6885 35.0518 56.6885 34.7078C56.6885 34.3639 56.5518 34.034 56.3086 33.7908C56.0654 33.5476 55.7356 33.411 55.3916 33.411Z" fill="black"/>
<path d="M40.9872 38.8798C41.2304 39.1231 41.3671 39.4529 41.3671 39.7969C41.3671 40.1408 41.2304 40.4707 40.9872 40.7139C40.744 40.9571 40.4141 41.0937 40.0702 41.0937H19.2963C18.9524 41.0937 18.6225 40.9571 18.3793 40.7139C18.1361 40.4707 17.9995 40.1408 17.9995 39.7969C17.9995 39.4529 18.1361 39.1231 18.3793 38.8798C18.6225 38.6366 18.9524 38.5 19.2963 38.5H40.0702C40.4141 38.5 40.744 38.6366 40.9872 38.8798Z" fill="black"/>
<path d="M40.3916 43.5301H19.2963C18.9524 43.5301 18.6225 43.6667 18.3793 43.9099C18.1361 44.1531 17.9995 44.483 17.9995 44.827C17.9995 45.1709 18.1361 45.5008 18.3793 45.744C18.6225 45.9872 18.9524 46.1238 19.2963 46.1238H40.3916C40.7356 46.1238 41.0654 45.9872 41.3086 45.744C41.5518 45.5008 41.6885 45.1709 41.6885 44.827C41.6885 44.483 41.5518 44.1531 41.3086 43.9099C41.0654 43.6667 40.7356 43.5301 40.3916 43.5301Z" fill="black"/>
</g>
<defs>
<clipPath id="clip0_27_439">
<rect width="83" height="83" fill="white"/>
</clipPath>
</defs>
</svg>
