<svg width="166" height="166" viewBox="0 0 166 166" fill="none" xmlns="http://www.w3.org/2000/svg">
<g clip-path="url(#clip0_1_346)">
<circle cx="134" cy="114" r="30" fill="#4884F1"/>
<path d="M3 133.5L3.5 125.5H79L85 127L86 135.5L88 143.5L94 152L96 156L26 156.5L11 151L6 144L3 133.5Z" fill="#0090FF" fill-opacity="0.11"/>
<path d="M166.003 112.37C166.003 131.678 150.296 147.386 130.988 147.386C130.251 147.386 129.521 147.36 128.796 147.315C123.998 154.251 116.237 158.345 107.723 158.345L25.6376 158.344C11.4994 158.344 -0.00323486 146.842 -0.00323486 132.704V125.487C-0.00323486 124.799 0.270034 124.139 0.756457 123.653C1.24288 123.166 1.90261 122.893 2.59052 122.893H20.8596V10.25C20.8596 9.56209 21.1329 8.90236 21.6193 8.41594C22.1057 7.92952 22.7654 7.65625 23.4533 7.65625H130.77C131.458 7.65625 132.118 7.92952 132.604 8.41594C133.091 8.90236 133.364 9.56209 133.364 10.25V77.4372C151.567 78.6631 166.003 93.8615 166.003 112.37ZM92.2756 153.157C86.0869 148.472 82.0818 141.046 82.0818 132.704V128.08H5.18427V132.704C5.18427 143.981 14.3597 153.157 25.6376 153.157H92.2756ZM122.889 146.439C107.473 142.774 95.972 128.891 95.972 112.37C95.972 111.79 95.9869 111.214 96.0151 110.64C95.972 94.5 111.025 83.6194 111.025 83.6194C115.969 80.1768 121.837 77.9741 128.176 77.468V12.8437H26.0471V122.893H84.6756C85.3635 122.893 86.0232 123.166 86.5096 123.653C86.9961 124.139 87.2693 124.799 87.2693 125.487V132.704C87.2693 143.981 96.4447 153.157 107.723 153.157L107.728 153.157C113.616 153.156 119.052 150.699 122.889 146.439ZM160.816 112.37C160.816 95.9232 147.435 82.5424 130.988 82.5424C114.54 82.5424 101.16 95.9232 101.16 112.37C101.16 128.818 114.54 142.199 130.988 142.199C147.435 142.199 160.816 128.817 160.816 112.37Z" fill="black"/>
<path d="M117.556 117.738L115.687 118.61L114.806 116.74L116.677 115.87C117.173 115.639 117.557 115.22 117.744 114.706C117.931 114.192 117.907 113.625 117.675 113.129C117.444 112.634 117.024 112.25 116.51 112.063C115.995 111.877 115.428 111.901 114.932 112.133L111.19 113.877C110.695 114.108 110.311 114.527 110.124 115.04C109.937 115.554 109.962 116.121 110.194 116.616L112.812 122.225L115.427 127.824C115.645 128.27 116.015 128.624 116.47 128.824C116.926 129.023 117.437 129.054 117.913 128.913C118.193 128.825 118.451 128.678 118.669 128.483C118.888 128.288 119.062 128.049 119.181 127.781C119.3 127.513 119.36 127.223 119.358 126.93C119.356 126.637 119.291 126.348 119.168 126.082L117.422 122.345L119.294 121.473C119.781 121.237 120.156 120.818 120.337 120.308C120.518 119.798 120.491 119.237 120.262 118.747C120.033 118.256 119.62 117.876 119.112 117.687C118.604 117.498 118.043 117.516 117.548 117.738H117.556ZM133.338 118.222L129.634 115.981C130.328 115.067 130.696 113.946 130.678 112.798C130.66 111.651 130.258 110.542 129.536 109.649C128.814 108.757 127.813 108.131 126.693 107.873C125.574 107.615 124.4 107.738 123.359 108.224L120.551 109.529C120.305 109.643 120.084 109.805 119.9 110.005C119.717 110.205 119.575 110.438 119.482 110.693C119.389 110.948 119.348 111.218 119.36 111.489C119.372 111.76 119.437 112.025 119.552 112.271L124.785 123.479C125.007 123.933 125.387 124.293 125.853 124.49C126.319 124.688 126.841 124.711 127.323 124.555C127.595 124.459 127.845 124.308 128.055 124.111C128.266 123.913 128.433 123.675 128.546 123.409C128.659 123.144 128.716 122.858 128.713 122.57C128.709 122.282 128.646 121.997 128.526 121.735L127.482 119.486L131.194 121.753C131.516 121.95 131.886 122.054 132.263 122.054C132.71 122.044 133.141 121.892 133.494 121.618C133.846 121.345 134.102 120.966 134.222 120.536C134.343 120.107 134.322 119.65 134.163 119.233C134.003 118.817 133.715 118.462 133.338 118.222ZM125.889 111.918C126.08 111.989 126.245 112.113 126.365 112.277C126.485 112.441 126.554 112.637 126.563 112.84C126.572 113.042 126.521 113.243 126.416 113.417C126.311 113.591 126.157 113.73 125.974 113.817L125.037 114.254L124.166 112.386L125.105 111.949C125.227 111.892 125.359 111.86 125.494 111.855C125.628 111.85 125.763 111.871 125.889 111.918ZM140.746 113.759L138.875 114.631L138.002 112.761L139.874 111.892C140.371 111.66 140.755 111.24 140.942 110.725C141.13 110.21 141.104 109.642 140.872 109.146C140.64 108.649 140.22 108.265 139.705 108.078C139.189 107.891 138.621 107.916 138.124 108.148L136.254 109.02L135.383 107.15L137.253 106.28C137.735 106.041 138.104 105.623 138.281 105.115C138.459 104.608 138.431 104.051 138.203 103.564C137.976 103.077 137.567 102.697 137.064 102.507C136.56 102.317 136.003 102.33 135.509 102.545L131.768 104.285C131.272 104.516 130.889 104.935 130.702 105.449C130.515 105.962 130.54 106.529 130.771 107.025L136.007 118.249C136.238 118.744 136.657 119.127 137.171 119.314C137.686 119.501 138.253 119.476 138.749 119.245L142.49 117.503C142.987 117.272 143.372 116.853 143.56 116.339C143.748 115.824 143.723 115.256 143.492 114.76C143.261 114.264 142.842 113.879 142.327 113.692C141.812 113.504 141.243 113.528 140.746 113.759ZM150.092 109.403L148.223 110.275L147.35 108.406L149.221 107.536C149.467 107.421 149.688 107.26 149.871 107.06C150.054 106.86 150.196 106.626 150.288 106.372C150.381 106.117 150.423 105.847 150.411 105.577C150.399 105.306 150.334 105.041 150.219 104.795C150.105 104.55 149.943 104.329 149.743 104.146C149.543 103.963 149.309 103.822 149.054 103.729C148.799 103.637 148.529 103.595 148.258 103.607C147.987 103.619 147.721 103.684 147.476 103.798L145.606 104.67L144.733 102.801L146.605 101.931C147.101 101.7 147.485 101.281 147.672 100.767C147.859 100.253 147.834 99.6857 147.603 99.1901C147.371 98.6945 146.952 98.3111 146.437 98.1242C145.923 97.9373 145.355 97.9622 144.859 98.1934L141.118 99.9353C140.622 100.167 140.239 100.585 140.052 101.099C139.865 101.613 139.89 102.18 140.121 102.675L142.742 108.29L145.354 113.887C145.586 114.382 146.005 114.765 146.519 114.952C147.033 115.139 147.601 115.114 148.097 114.883L151.838 113.139C152.325 112.902 152.7 112.484 152.881 111.974C153.062 111.464 153.035 110.903 152.806 110.412C152.577 109.922 152.164 109.541 151.656 109.352C151.148 109.164 150.587 109.182 150.092 109.403Z" fill="white"/>
<path d="M82.2403 26.7597C82.7267 27.2461 83 27.9058 83 28.5937C83 29.2817 82.7267 29.9414 82.2403 30.4278C81.7539 30.9142 81.0942 31.1875 80.4062 31.1875H38.8586C38.1707 31.1875 37.5109 30.9142 37.0245 30.4278C36.5381 29.9414 36.2648 29.2817 36.2648 28.5937C36.2648 27.9058 36.5381 27.2461 37.0245 26.7597C37.5109 26.2733 38.1707 26 38.8586 26H80.4062C81.0942 26 81.7539 26.2733 82.2403 26.7597Z" fill="black"/>
<path d="M61.0491 36.0602H38.8586C38.1707 36.0602 37.5109 36.3335 37.0245 36.8199C36.5381 37.3063 36.2648 37.966 36.2648 38.6539C36.2648 39.3418 36.5381 40.0016 37.0245 40.488C37.5109 40.9744 38.1707 41.2477 38.8586 41.2477H61.0491C61.737 41.2477 62.3967 40.9744 62.8831 40.488C63.3696 40.0016 63.6428 39.3418 63.6428 38.6539C63.6428 37.966 63.3696 37.3063 62.8831 36.8199C62.3967 36.3335 61.737 36.0602 61.0491 36.0602Z" fill="black"/>
<path d="M111.975 57.5214C112.462 58.0078 112.735 58.6676 112.735 59.3555C112.735 60.0434 112.462 60.7031 111.975 61.1895C111.489 61.6759 110.829 61.9492 110.141 61.9492H38.5938C37.9059 61.9492 37.2461 61.6759 36.7597 61.1895C36.2733 60.7031 36 60.0434 36 59.3555C36 58.6676 36.2733 58.0078 36.7597 57.5214C37.2461 57.035 37.9059 56.7617 38.5938 56.7617H110.141C110.829 56.7617 111.489 57.035 111.975 57.5214Z" fill="black"/>
<path d="M110.784 66.8219H38.5938C37.9059 66.8219 37.2461 67.0952 36.7597 67.5816C36.2733 68.068 36 68.7277 36 69.4157C36 70.1036 36.2733 70.7633 36.7597 71.2497C37.2461 71.7361 37.9059 72.0094 38.5938 72.0094H110.784C111.472 72.0094 112.132 71.7361 112.618 71.2497C113.105 70.7633 113.378 70.1036 113.378 69.4157C113.378 68.7277 113.105 68.068 112.618 67.5816C112.132 67.0952 111.472 66.8219 110.784 66.8219Z" fill="black"/>
<path d="M81.9755 77.7597C82.4619 78.2461 82.7352 78.9058 82.7352 79.5937C82.7352 80.2817 82.4619 80.9414 81.9755 81.4278C81.4891 81.9142 80.8293 82.1875 80.1414 82.1875H38.5938C37.9059 82.1875 37.2461 81.9142 36.7597 81.4278C36.2733 80.9414 36 80.2817 36 79.5937C36 78.9058 36.2733 78.2461 36.7597 77.7597C37.2461 77.2733 37.9059 77 38.5938 77H80.1414C80.8293 77 81.4891 77.2733 81.9755 77.7597Z" fill="black"/>
<path d="M80.7843 87.0602H38.5938C37.9059 87.0602 37.2461 87.3335 36.7597 87.8199C36.2733 88.3063 36 88.966 36 89.6539C36 90.3418 36.2733 91.0016 36.7597 91.488C37.2461 91.9744 37.9059 92.2477 38.5938 92.2477H80.7843C81.4722 92.2477 82.1319 91.9744 82.6183 91.488C83.1048 91.0016 83.378 90.3418 83.378 89.6539C83.378 88.966 83.1048 88.3063 82.6183 87.8199C82.1319 87.3335 81.4722 87.0602 80.7843 87.0602Z" fill="black"/>
</g>
<defs>
<clipPath id="clip0_1_346">
<rect width="166" height="166" fill="white"/>
</clipPath>
</defs>
</svg>
