<svg width="682" height="484" viewBox="0 0 682 484" fill="none" xmlns="http://www.w3.org/2000/svg">
<g filter="url(#filter0_d_1_236)">
<mask id="path-1-inside-1_1_236" fill="white">
<path d="M363 0C374.046 0 383 8.95431 383 20V92C383 103.046 391.954 112 403 112H660C671.046 112 680 120.954 680 132V459C680 470.046 671.046 479 660 479H20C8.95432 479 0 470.046 0 459V20C0 8.9543 8.95431 0 20 0H363Z"/>
</mask>
<path d="M363 0C374.046 0 383 8.95431 383 20V92C383 103.046 391.954 112 403 112H660C671.046 112 680 120.954 680 132V459C680 470.046 671.046 479 660 479H20C8.95432 479 0 470.046 0 459V20C0 8.9543 8.95431 0 20 0H363Z" fill="white"/>
<path d="M383 20H382V92H383H384V20H383ZM403 112V113H660V112V111H403V112ZM680 132H679V459H680H681V132H680ZM660 479V478H20V479V480H660V479ZM0 459H1V20H0H-1V459H0ZM20 0V1H363V0V-1H20V0ZM0 20H1C1 9.50659 9.50659 1 20 1V0V-1C8.40202 -1 -1 8.40202 -1 20H0ZM20 479V478C9.50661 478 1 469.493 1 459H0H-1C-1 470.598 8.40204 480 20 480V479ZM680 459H679C679 469.493 670.493 478 660 478V479V480C671.598 480 681 470.598 681 459H680ZM660 112V113C670.493 113 679 121.507 679 132H680H681C681 120.402 671.598 111 660 111V112ZM383 92H382C382 103.598 391.402 113 403 113V112V111C392.507 111 384 102.493 384 92H383ZM383 20H384C384 8.40202 374.598 -1 363 -1V0V1C373.493 1 382 9.50659 382 20H383Z" fill="black" fill-opacity="0.1" mask="url(#path-1-inside-1_1_236)"/>
</g>
<defs>
<filter id="filter0_d_1_236" x="0" y="0" width="682" height="484" filterUnits="userSpaceOnUse" color-interpolation-filters="sRGB">
<feFlood flood-opacity="0" result="BackgroundImageFix"/>
<feColorMatrix in="SourceAlpha" type="matrix" values="0 0 0 0 0 0 0 0 0 0 0 0 0 0 0 0 0 0 127 0" result="hardAlpha"/>
<feOffset dx="2" dy="5"/>
<feComposite in2="hardAlpha" operator="out"/>
<feColorMatrix type="matrix" values="0 0 0 0 0.850868 0 0 0 0 0.799226 0 0 0 0 0.782013 0 0 0 0.49 0"/>
<feBlend mode="normal" in2="BackgroundImageFix" result="effect1_dropShadow_1_236"/>
<feBlend mode="normal" in="SourceGraphic" in2="effect1_dropShadow_1_236" result="shape"/>
</filter>
</defs>
</svg>
