<svg width="169" height="29" viewBox="0 0 169 29" fill="none" xmlns="http://www.w3.org/2000/svg">
<path d="M47.7214 7.64019H49.9262L50.9454 18.8306H50.987L52.0686 7.64019H54.5646L55.6462 18.8306H55.6878L56.707 7.64019H58.683L57.2062 22.2002H54.3566L53.3166 12.3826H53.275L52.235 22.2002H49.1982L47.7214 7.64019ZM60.6403 7.64019H66.8803V9.72019H62.9283V13.5682H66.0691V15.6482H62.9283V20.1202H66.8803V22.2002H60.6403V7.64019ZM68.9965 7.64019H72.4493C73.628 7.64019 74.4877 7.91753 75.0285 8.47219C75.5693 9.01299 75.8397 9.85193 75.8397 10.989V11.5714C75.8397 12.3202 75.7149 12.9303 75.4653 13.4018C75.2296 13.8733 74.8621 14.213 74.3629 14.421V14.4626C75.5 14.8509 76.0685 15.8631 76.0685 17.4994V18.7474C76.0685 19.8706 75.7704 20.7303 75.1741 21.3266C74.5917 21.909 73.732 22.2002 72.5949 22.2002H68.9965V7.64019ZM72.1789 13.5682C72.6365 13.5682 72.9763 13.4503 73.1981 13.2146C73.4339 12.9789 73.5517 12.5837 73.5517 12.029V11.2178C73.5517 10.6909 73.4547 10.3095 73.2605 10.0738C73.0803 9.83806 72.7891 9.72019 72.3869 9.72019H71.2845V13.5682H72.1789ZM72.5949 20.1202C72.9971 20.1202 73.2952 20.0162 73.4893 19.8082C73.6835 19.5863 73.7805 19.2119 73.7805 18.685V17.4162C73.7805 16.7506 73.6627 16.293 73.4269 16.0434C73.2051 15.7799 72.8307 15.6482 72.3037 15.6482H71.2845V20.1202H72.5949ZM81.4507 22.4082C80.3275 22.4082 79.4747 22.0962 78.8923 21.4722C78.3238 20.8482 78.0395 19.9538 78.0395 18.789V17.6034H80.2027V18.893C80.2027 19.8498 80.5979 20.3282 81.3883 20.3282C81.7766 20.3282 82.0678 20.2103 82.2619 19.9746C82.4699 19.725 82.5739 19.2951 82.5739 18.685V17.4994C82.5739 16.8338 82.4561 16.3623 82.2203 16.085C81.9846 15.7938 81.6033 15.6482 81.0763 15.6482H80.3067V13.5682H81.1387C81.5963 13.5682 81.9361 13.4503 82.1579 13.2146C82.3937 12.9789 82.5115 12.5837 82.5115 12.029V10.9682C82.5115 10.469 82.4075 10.1015 82.1995 9.86579C81.9915 9.63006 81.7142 9.51219 81.3675 9.51219C80.6326 9.51219 80.2651 9.96286 80.2651 10.8642V11.821H78.1019V11.0514C78.1019 9.88659 78.3862 8.99219 78.9547 8.36819C79.5371 7.74419 80.3691 7.43219 81.4507 7.43219C82.5462 7.43219 83.3782 7.74419 83.9467 8.36819C84.5153 8.97833 84.7995 9.86579 84.7995 11.0306V11.5506C84.7995 12.341 84.6678 12.9789 84.4043 13.4642C84.1409 13.9357 83.7318 14.2754 83.1771 14.4834V14.525C83.7734 14.7469 84.2033 15.1074 84.4667 15.6066C84.7302 16.1058 84.8619 16.7437 84.8619 17.5202V18.8098C84.8619 19.9746 84.5707 20.869 83.9883 21.493C83.4198 22.1031 82.5739 22.4082 81.4507 22.4082ZM94.6893 22.4082C93.5938 22.4082 92.7549 22.0962 92.1725 21.4722C91.604 20.8482 91.3197 19.9677 91.3197 18.8306V11.0098C91.3197 9.87273 91.604 8.99219 92.1725 8.36819C92.7549 7.74419 93.5938 7.43219 94.6893 7.43219C95.7848 7.43219 96.6168 7.74419 97.1853 8.36819C97.7677 8.99219 98.0589 9.87273 98.0589 11.0098V12.549H95.8957V10.8642C95.8957 9.96286 95.5144 9.51219 94.7517 9.51219C93.989 9.51219 93.6077 9.96286 93.6077 10.8642V18.997C93.6077 19.8845 93.989 20.3282 94.7517 20.3282C95.5144 20.3282 95.8957 19.8845 95.8957 18.997V16.7714H98.0589V18.8306C98.0589 19.9677 97.7677 20.8482 97.1853 21.4722C96.6168 22.0962 95.7848 22.4082 94.6893 22.4082ZM100.228 7.64019H102.516V13.5682H104.97V7.64019H107.258V22.2002H104.97V15.6482H102.516V22.2002H100.228V7.64019ZM109.762 7.64019H116.002V9.72019H112.05V13.5682H115.191V15.6482H112.05V20.1202H116.002V22.2002H109.762V7.64019ZM121.342 22.4082C120.247 22.4082 119.408 22.0962 118.826 21.4722C118.257 20.8482 117.973 19.9677 117.973 18.8306V11.0098C117.973 9.87273 118.257 8.99219 118.826 8.36819C119.408 7.74419 120.247 7.43219 121.342 7.43219C122.438 7.43219 123.27 7.74419 123.838 8.36819C124.421 8.99219 124.712 9.87273 124.712 11.0098V12.549H122.549V10.8642C122.549 9.96286 122.167 9.51219 121.405 9.51219C120.642 9.51219 120.261 9.96286 120.261 10.8642V18.997C120.261 19.8845 120.642 20.3282 121.405 20.3282C122.167 20.3282 122.549 19.8845 122.549 18.997V16.7714H124.712V18.8306C124.712 19.9677 124.421 20.8482 123.838 21.4722C123.27 22.0962 122.438 22.4082 121.342 22.4082ZM126.881 7.64019H129.169V13.7762L132.081 7.64019H134.369L131.644 12.9858L134.411 22.2002H132.019L130.084 15.7106L129.169 17.5618V22.2002H126.881V7.64019ZM139.276 22.4082C138.152 22.4082 137.293 22.0893 136.696 21.4514C136.1 20.8135 135.802 19.9122 135.802 18.7474V11.093C135.802 9.92819 136.1 9.02686 136.696 8.38899C137.293 7.75113 138.152 7.43219 139.276 7.43219C140.399 7.43219 141.259 7.75113 141.855 8.38899C142.451 9.02686 142.749 9.92819 142.749 11.093V18.7474C142.749 19.9122 142.451 20.8135 141.855 21.4514C141.259 22.0893 140.399 22.4082 139.276 22.4082ZM139.276 20.3282C140.066 20.3282 140.461 19.8498 140.461 18.893V10.9474C140.461 9.99059 140.066 9.51219 139.276 9.51219C138.485 9.51219 138.09 9.99059 138.09 10.9474V18.893C138.09 19.8498 138.485 20.3282 139.276 20.3282ZM148.425 22.4082C147.315 22.4082 146.469 22.0962 145.887 21.4722C145.305 20.8343 145.013 19.9261 145.013 18.7474V7.64019H147.301V18.9138C147.301 19.413 147.398 19.7735 147.593 19.9954C147.801 20.2173 148.092 20.3282 148.466 20.3282C148.841 20.3282 149.125 20.2173 149.319 19.9954C149.527 19.7735 149.631 19.413 149.631 18.9138V7.64019H151.836V18.7474C151.836 19.9261 151.545 20.8343 150.962 21.4722C150.38 22.0962 149.534 22.4082 148.425 22.4082ZM156.054 9.72019H153.662V7.64019H160.734V9.72019H158.342V22.2002H156.054V9.72019Z" fill="black"/>
<rect x="87.1992" y="6.3999" width="1.6" height="16" rx="0.8" fill="#FF8629"/>
<path d="M162.075 6.8001H164.359V7.2521H163.487V9.6001H162.947V7.2521H162.075V6.8001ZM164.739 6.8001H165.351L166.279 8.6361L167.199 6.8001H167.811V9.6001H167.319V7.5481L166.447 9.3121H166.103L165.227 7.5481V9.6001H164.739V6.8001Z" fill="black"/>
<path d="M38.2293 14.3032L31.7637 23.2618C31.2779 23.9362 30.4991 24.3389 29.6681 24.3389C27.5566 24.3389 26.3336 21.945 27.5673 20.2309L31.8478 14.3086V14.3032L28.0009 9.04998C26.7565 7.35075 27.9742 4.95264 30.0815 4.95264C30.9018 4.95264 31.6753 5.34469 32.1621 6.0084L38.2304 14.3032H38.2293Z" fill="black"/>
<path d="M1.70776 6.83637C2.84769 4.68329 4.43613 3.00536 6.47415 1.80364C8.51217 0.601924 10.8229 0 13.4064 0C16.5716 0 19.2808 0.871458 21.535 2.61544C23.4591 4.10374 24.8387 6.0544 25.6739 8.46742C25.8891 9.09066 25.4545 9.74904 24.8195 9.74904H19.464C19.1401 9.74904 18.8386 9.57006 18.6778 9.27709C18.1675 8.34491 17.492 7.61727 16.6547 7.09418C15.6799 6.48693 14.5719 6.18224 13.3308 6.18224C11.33 6.18224 9.70963 6.90881 8.46849 8.36195C7.22735 9.8151 6.60732 11.7572 6.60732 14.1873C6.60732 16.6174 7.22735 18.5606 8.46849 20.0127C9.70856 21.4658 11.33 22.1924 13.3308 22.1924C14.5708 22.1924 15.6788 21.8887 16.6547 21.2804C17.4931 20.7584 18.1675 20.0308 18.6778 19.0975C18.8386 18.8035 19.1401 18.6256 19.464 18.6256H24.8195C25.4545 18.6256 25.8891 19.284 25.6739 19.9072C24.8387 22.3181 23.4591 24.2623 21.5361 25.7389C19.2818 27.4701 16.5726 28.3352 13.4075 28.3352C10.825 28.3352 8.51324 27.7343 6.47521 26.5315C4.43613 25.3298 2.84769 23.6583 1.70883 21.518C0.568898 19.3777 0 16.9348 0 14.1862C0 11.4376 0.569964 8.98838 1.70883 6.83424L1.70776 6.83637Z" fill="url(#paint0_linear_1_133)"/>
<path d="M13.4062 0.599609C16.4541 0.599609 19.0305 1.43624 21.168 3.08984C22.9948 4.50298 24.3073 6.35484 25.1064 8.66309C25.202 8.93971 24.9975 9.14941 24.8193 9.14941H19.4639C19.3636 9.14937 19.2608 9.09332 19.2031 8.98828C18.6471 7.97296 17.9032 7.16626 16.9727 6.58496H16.9717C15.8944 5.91393 14.6751 5.58208 13.3311 5.58203C11.1642 5.58203 9.37377 6.37909 8.0127 7.97266C6.65575 9.56139 6.00684 11.6545 6.00684 14.1875C6.00687 16.7197 6.65517 18.8137 8.01172 20.4014V20.4023C9.37188 21.9962 11.1643 22.792 13.3311 22.792C14.6737 22.7919 15.8932 22.4622 16.9717 21.79C17.9044 21.2093 18.6482 20.4023 19.2041 19.3857C19.2612 19.2813 19.3625 19.2256 19.4639 19.2256H24.8193C24.9975 19.2256 25.2017 19.4344 25.1064 19.7109C24.3075 22.0168 22.9956 23.8615 21.1709 25.2627C19.0334 26.9042 16.4561 27.7354 13.4072 27.7354C11.0773 27.7353 8.99393 27.228 7.14648 26.2227L6.78027 26.0146L6.4209 25.7949C4.76915 24.7451 3.44589 23.3541 2.44727 21.6143L2.23828 21.2363L2.04102 20.8496C1.08419 18.8995 0.599646 16.6837 0.599609 14.1865C0.599609 11.524 1.15034 9.17305 2.2373 7.11621L2.23828 7.11719C3.32799 5.05898 4.8399 3.46388 6.7793 2.32031C8.71663 1.17806 10.9202 0.599633 13.4062 0.599609Z" stroke="url(#paint1_linear_1_133)" stroke-opacity="0.39" stroke-width="1.2"/>
<defs>
<linearGradient id="paint0_linear_1_133" x1="10.4" y1="8.8" x2="1.6" y2="2.4" gradientUnits="userSpaceOnUse">
<stop stop-color="#FF8629"/>
<stop offset="1" stop-color="#FFD729"/>
</linearGradient>
<linearGradient id="paint1_linear_1_133" x1="2.8" y1="5.6" x2="6.4" y2="9.2" gradientUnits="userSpaceOnUse">
<stop stop-color="white"/>
<stop offset="1" stop-color="white" stop-opacity="0"/>
</linearGradient>
</defs>
</svg>
