<svg width="24" height="25" viewBox="0 0 24 25" fill="none" xmlns="http://www.w3.org/2000/svg">
<path d="M7.84898 12.235C7.99498 12.381 7.99498 12.619 7.84898 12.765C7.70298 12.911 7.46498 12.911 7.31898 12.765C7.17298 12.619 7.17298 12.381 7.31898 12.235C7.46498 12.088 7.70198 12.088 7.84898 12.235" stroke="black" stroke-width="1.5" stroke-linecap="round" stroke-linejoin="round"/>
<path d="M12.265 12.235C12.411 12.381 12.411 12.619 12.265 12.765C12.119 12.911 11.881 12.911 11.735 12.765C11.589 12.619 11.589 12.381 11.735 12.235C11.881 12.088 12.119 12.088 12.265 12.235" stroke="black" stroke-width="1.5" stroke-linecap="round" stroke-linejoin="round"/>
<path d="M13 3.5H14C15.105 3.5 16 4.395 16 5.5C16 4.395 16.895 3.5 18 3.5H19" stroke="black" stroke-width="1.5" stroke-linecap="round" stroke-linejoin="round"/>
<path d="M16 19.5V5.5" stroke="black" stroke-width="1.5" stroke-linecap="round" stroke-linejoin="round"/>
<path d="M19 21.5H18C16.895 21.5 16 20.605 16 19.5C16 20.605 15.105 21.5 14 21.5H13" stroke="black" stroke-width="1.5" stroke-linecap="round" stroke-linejoin="round"/>
<path d="M13 17.5H5C3.895 17.5 3 16.605 3 15.5V9.5C3 8.395 3.895 7.5 5 7.5H13" stroke="black" stroke-width="1.5" stroke-linecap="round" stroke-linejoin="round"/>
<path d="M16 17.5H19C20.105 17.5 21 16.605 21 15.5V9.5C21 8.395 20.105 7.5 19 7.5H16" stroke="black" stroke-width="1.5" stroke-linecap="round" stroke-linejoin="round"/>
</svg>
