<svg width="83" height="83" viewBox="0 0 83 83" fill="none" xmlns="http://www.w3.org/2000/svg">
<g clip-path="url(#clip0_27_517)">
<rect x="22" y="26" width="31.5" height="27.5" fill="#F5EAE3"/>
<circle cx="67" cy="57" r="15" fill="#4884F1"/>
<circle cx="67" cy="57" r="15" fill="url(#paint0_linear_27_517)"/>
<path d="M1.35742 66.7495L1.60742 62.7495H39.3574L42.3574 63.4995L42.8574 67.7495L43.8574 71.7495L46.8574 75.9995L47.8574 77.9995L12.8574 78.2495L5.35742 75.4995L2.85742 71.9995L1.35742 66.7495Z" fill="#F5EAE3"/>
<path d="M32.0042 12.4157C32.0042 12.0718 32.1408 11.7419 32.384 11.4987C32.6273 11.2555 32.9571 11.1189 33.3011 11.1189H54.0749C54.4189 11.1189 54.7487 11.2555 54.9919 11.4987C55.2351 11.7419 55.3718 12.0718 55.3718 12.4157C55.3718 12.7597 55.2351 13.0896 54.9919 13.3328C54.7487 13.576 54.4189 13.7126 54.0749 13.7126H33.3011C32.9571 13.7126 32.6273 13.576 32.384 13.3328C32.1408 13.0896 32.0042 12.7597 32.0042 12.4157ZM54.0749 16.149H42.9797C42.6357 16.149 42.3058 16.2856 42.0626 16.5288C41.8194 16.772 41.6828 17.1019 41.6828 17.4458C41.6828 17.7898 41.8194 18.1197 42.0626 18.3629C42.3058 18.6061 42.6357 18.7427 42.9797 18.7427H54.0749C54.4189 18.7427 54.7487 18.6061 54.9919 18.3629C55.2351 18.1197 55.3718 17.7898 55.3718 17.4458C55.3718 17.1019 55.2351 16.772 54.9919 16.5288C54.7487 16.2856 54.4189 16.149 54.0749 16.149ZM82.8607 56.3566C82.8607 66.0106 75.0068 73.8644 65.3529 73.8644C64.9847 73.8644 64.6196 73.8516 64.257 73.8291C61.8583 77.2971 57.9774 79.3437 53.7205 79.3437L12.6778 79.3436C5.60874 79.3436 -0.142578 73.5923 -0.142578 66.5232V62.9148C-0.142578 62.5708 -0.00594345 62.2409 0.237268 61.9977C0.480479 61.7545 0.810344 61.6179 1.1543 61.6179H10.2888V5.29639C10.2888 4.95243 10.4255 4.62257 10.6687 4.37936C10.9119 4.13615 11.2418 3.99951 11.5857 3.99951H65.2441C65.588 3.99951 65.9179 4.13615 66.1611 4.37936C66.4043 4.62257 66.541 4.95243 66.541 5.29639V38.89C75.6427 39.5029 82.8607 47.1021 82.8607 56.3566ZM45.9968 76.7498C42.9025 74.4072 40.8999 70.6945 40.8999 66.5232V64.2116H2.45117V66.5232C2.45117 72.1621 7.03887 76.7498 12.6778 76.7498H45.9968ZM61.3035 73.3908C53.5957 71.5586 47.845 64.6169 47.845 56.3566C47.845 56.0664 47.8525 55.7782 47.8666 55.4914H22.6129C20.923 55.4914 19.5484 54.1168 19.5484 52.4268V26.9771C19.5484 25.2872 20.923 23.9125 22.6129 23.9125H52.3073C53.9971 23.9125 55.3718 25.2872 55.3718 26.9771V41.9811C57.8435 40.2598 60.7775 39.1584 63.947 38.9054V6.59326H12.8826V61.6179H42.1968C42.5408 61.6179 42.8706 61.7545 43.1139 61.9977C43.3571 62.2409 43.4937 62.5708 43.4937 62.9148V66.5232C43.4937 72.1621 48.0814 76.7498 53.7205 76.7498L53.723 76.75C56.6669 76.7492 59.3853 75.521 61.3035 73.3908ZM52.778 44.1879V40.9989H31.6975V45.6514H51.5092C51.9051 45.1407 52.3286 44.6522 52.778 44.1879ZM52.778 33.7524H31.6975V38.405H52.778V33.7524ZM52.778 26.9771C52.778 26.7219 52.5624 26.5063 52.3073 26.5063H31.6975V31.1588H52.778V26.9771ZM29.1037 26.5061H22.6129C22.3577 26.5061 22.1421 26.7217 22.1421 26.9769V31.1587H29.1037V26.5061ZM22.1421 38.4051H29.1037V33.7526H22.1421V38.4051ZM22.1421 45.6514H29.1037V40.9989H22.1421V45.6514ZM22.1421 52.4268C22.1421 52.6821 22.3577 52.8977 22.6129 52.8977H29.1037V48.2452H22.1421V52.4268ZM31.6975 52.8977H48.1887C48.5153 51.2761 49.0717 49.7095 49.8411 48.2452H31.6975V52.8977ZM80.2669 56.3566C80.2669 48.133 73.5765 41.4426 65.3529 41.4426C57.1292 41.4426 50.4388 48.133 50.4388 56.3566C50.4388 64.5803 57.1292 71.2707 65.3529 71.2707C73.5765 71.2707 80.2669 64.5801 80.2669 56.3566Z" fill="black"/>
<path d="M61.7044 62.7467H68.5586C68.8648 62.7467 69.2075 62.5061 69.3096 62.2144L72.3284 53.7706C72.7586 52.5602 72.2555 52.1883 71.22 52.9321L68.3763 54.9665C67.9023 55.2946 67.3628 55.1269 67.1586 54.5946L65.8753 51.1748C65.4669 50.0811 64.7888 50.0811 64.3805 51.1748L63.0971 54.5946C62.893 55.1269 62.3534 55.2946 61.8867 54.9665L59.218 53.0633C58.0805 52.2467 57.5336 52.6623 58.0003 53.9821L60.9461 62.229C61.0555 62.5061 61.3982 62.7467 61.7044 62.7467Z" fill="white"/>
<path d="M62.18 61.8385H69.0342C69.3404 61.8385 69.6831 61.5979 69.7852 61.3062L72.804 52.8624C73.2342 51.652 72.7311 51.2801 71.6956 52.0239L68.8519 54.0583C68.3779 54.3864 67.8383 54.2187 67.6342 53.6864L66.3508 50.2666C65.9425 49.1729 65.2644 49.1729 64.8561 50.2666L63.5727 53.6864C63.3686 54.2187 62.829 54.3864 62.3623 54.0583L59.6936 52.1551C58.5561 51.3385 58.0092 51.7541 58.4758 53.0739L61.4217 61.3208C61.5311 61.5979 61.8738 61.8385 62.18 61.8385Z" stroke="black" stroke-width="1.5" stroke-linecap="round" stroke-linejoin="round"/>
<path d="M69.6182 64.041H61.5973" stroke="black" stroke-width="1.5" stroke-linecap="round" stroke-linejoin="round"/>
<path d="M67.4307 58.207H63.7848" stroke="black" stroke-width="1.5" stroke-linecap="round" stroke-linejoin="round"/>
</g>
<defs>
<linearGradient id="paint0_linear_27_517" x1="82" y1="44.0818" x2="89.0226" y2="93.6388" gradientUnits="userSpaceOnUse">
<stop stop-color="#FF8629"/>
<stop offset="1" stop-color="#FFD729"/>
</linearGradient>
<clipPath id="clip0_27_517">
<rect width="83" height="83" fill="white"/>
</clipPath>
</defs>
</svg>
