<svg width="167" height="166" viewBox="0 0 167 166" fill="none" xmlns="http://www.w3.org/2000/svg">
<g clip-path="url(#clip0_1_424)">
<rect x="44.2852" y="52" width="63" height="55" fill="#F5EAE3"/>
<circle cx="134.285" cy="114" r="30" fill="#4884F1"/>
<circle cx="134.285" cy="114" r="30" fill="url(#paint0_linear_1_424)"/>
<path d="M3 133.5L3.5 125.5H79L85 127L86 135.5L88 143.5L94 152L96 156L26 156.5L11 151L6 144L3 133.5Z" fill="#F5EAE3"/>
<path d="M64.2935 24.832C64.2935 24.1441 64.5668 23.4843 65.0532 22.9979C65.5397 22.5115 66.1994 22.2382 66.8873 22.2382H108.435C109.123 22.2382 109.783 22.5115 110.269 22.9979C110.755 23.4843 111.029 24.1441 111.029 24.832C111.029 25.5199 110.755 26.1796 110.269 26.666C109.783 27.1525 109.123 27.4257 108.435 27.4257H66.8873C66.1994 27.4257 65.5397 27.1525 65.0532 26.666C64.5668 26.1796 64.2935 25.5199 64.2935 24.832ZM108.435 32.2984H86.2445C85.5566 32.2984 84.8968 32.5717 84.4104 33.0581C83.924 33.5445 83.6507 34.2043 83.6507 34.8922C83.6507 35.5801 83.924 36.2398 84.4104 36.7262C84.8968 37.2126 85.5566 37.4859 86.2445 37.4859H108.435C109.123 37.4859 109.783 37.2126 110.269 36.7262C110.755 36.2398 111.029 35.5801 111.029 34.8922C111.029 34.2043 110.755 33.5445 110.269 33.0581C109.783 32.5717 109.123 32.2984 108.435 32.2984ZM166.006 112.714C166.006 132.022 150.299 147.729 130.991 147.729C130.255 147.729 129.524 147.704 128.799 147.659C124.002 154.595 116.24 158.688 107.726 158.688L25.6408 158.688C11.5026 158.688 0 147.185 0 133.047V125.83C0 125.142 0.273269 124.482 0.759692 123.996C1.24611 123.51 1.90584 123.236 2.59375 123.236H20.8628V10.5933C20.8628 9.90536 21.1361 9.24563 21.6225 8.7592C22.1089 8.27278 22.7687 7.99951 23.4566 7.99951H130.773C131.461 7.99951 132.121 8.27278 132.607 8.7592C133.094 9.24563 133.367 9.90536 133.367 10.5933V77.7805C151.571 79.0063 166.006 94.2047 166.006 112.714ZM92.2788 153.5C86.0901 148.815 82.0851 141.39 82.0851 133.047V128.424H5.1875V133.047C5.1875 144.325 14.3629 153.5 25.6408 153.5H92.2788ZM122.892 146.782C107.477 143.118 95.9752 129.234 95.9752 112.714C95.9752 112.133 95.9902 111.557 96.0184 110.983H45.5109C42.1312 110.983 39.3819 108.234 39.3819 104.854V53.9546C39.3819 50.5749 42.1312 47.8256 45.5109 47.8256H104.9C108.279 47.8256 111.029 50.5749 111.029 53.9546V83.9627C115.972 80.5201 121.84 78.3174 128.179 77.8113V13.187H26.0503V123.236H84.6788C85.3667 123.236 86.0265 123.51 86.5129 123.996C86.9993 124.482 87.2726 125.142 87.2726 125.83V133.047C87.2726 144.325 96.4479 153.5 107.726 153.5L107.731 153.5C113.619 153.499 119.056 151.043 122.892 146.782ZM105.841 88.3763V81.9982H63.6801V91.3033H103.304C104.095 90.282 104.942 89.3048 105.841 88.3763ZM105.841 67.5053H63.6801V76.8104H105.841V67.5053ZM105.841 53.9546C105.841 53.4443 105.41 53.0131 104.9 53.0131H63.6801V62.3181H105.841V53.9546ZM58.4926 53.0127H45.5109C45.0006 53.0127 44.5694 53.444 44.5694 53.9543V62.3178H58.4926V53.0127ZM44.5694 76.8107H58.4926V67.5056H44.5694V76.8107ZM44.5694 91.3033H58.4926V81.9982H44.5694V91.3033ZM44.5694 104.854C44.5694 105.365 45.0006 105.796 45.5109 105.796H58.4926V96.4908H44.5694V104.854ZM63.6801 105.796H96.6626C97.3157 102.553 98.4285 99.4194 99.9673 96.4908H63.6801V105.796ZM160.819 112.714C160.819 96.2664 147.438 82.8856 130.991 82.8856C114.544 82.8856 101.163 96.2664 101.163 112.714C101.163 129.161 114.544 142.542 130.991 142.542C147.438 142.542 160.819 129.161 160.819 112.714Z" fill="black"/>
<path d="M123.694 125.495H137.402C138.015 125.495 138.7 125.014 138.904 124.431L144.942 107.543C145.802 105.122 144.796 104.379 142.725 105.866L137.038 109.935C136.09 110.591 135.011 110.256 134.602 109.191L132.036 102.352C131.219 100.164 129.863 100.164 129.046 102.352L126.479 109.191C126.071 110.256 124.992 110.591 124.058 109.935L118.721 106.129C116.446 104.495 115.352 105.327 116.286 107.966L122.177 124.46C122.396 125.014 123.081 125.495 123.694 125.495Z" fill="white"/>
<path d="M124.646 123.679H138.354C138.967 123.679 139.652 123.197 139.856 122.614L145.894 105.727C146.754 103.306 145.748 102.562 143.677 104.049L137.99 108.118C137.042 108.774 135.962 108.439 135.554 107.374L132.987 100.535C132.171 98.3474 130.815 98.3474 129.998 100.535L127.431 107.374C127.023 108.439 125.944 108.774 125.01 108.118L119.673 104.312C117.398 102.679 116.304 103.51 117.237 106.149L123.129 122.643C123.348 123.197 124.033 123.679 124.646 123.679Z" stroke="black" stroke-width="3" stroke-linecap="round" stroke-linejoin="round"/>
<path d="M139.521 128.083H123.479" stroke="black" stroke-width="3" stroke-linecap="round" stroke-linejoin="round"/>
<path d="M135.146 116.416H127.854" stroke="black" stroke-width="3" stroke-linecap="round" stroke-linejoin="round"/>
</g>
<defs>
<linearGradient id="paint0_linear_1_424" x1="164.285" y1="88.1635" x2="178.33" y2="187.278" gradientUnits="userSpaceOnUse">
<stop stop-color="#FF8629"/>
<stop offset="1" stop-color="#FFD729"/>
</linearGradient>
<clipPath id="clip0_1_424">
<rect width="166" height="166" fill="white" transform="translate(0.285156)"/>
</clipPath>
</defs>
</svg>
