<svg width="120" height="120" viewBox="0 0 120 120" fill="none" xmlns="http://www.w3.org/2000/svg">
<path d="M24.685 29.855C19.375 35.305 15.52 42.155 13.665 49.795" stroke="black" stroke-width="5" stroke-linecap="round" stroke-linejoin="round"/>
<path d="M46.4501 102.215C49.4051 102.855 52.4701 103.21 55.6201 103.21C60.0801 103.21 64.3851 102.53 68.4351 101.275" stroke="#FF862A" stroke-width="5" stroke-linecap="round" stroke-linejoin="round"/>
<path d="M13.67 70.2051C15.525 77.8451 19.38 84.6951 24.69 90.1451" stroke="#FF862A" stroke-width="5" stroke-linecap="round" stroke-linejoin="round"/>
<path d="M97.0251 72.3198C94.9301 79.3798 91.0601 85.6648 85.9651 90.7098" stroke="black" stroke-width="5" stroke-linecap="round" stroke-linejoin="round"/>
<path d="M85.9651 29.29C91.0601 34.335 94.9251 40.62 97.0251 47.68" stroke="black" stroke-width="5" stroke-linecap="round" stroke-linejoin="round"/>
<path d="M46.4501 17.7848C49.4051 17.1448 52.4701 16.7898 55.6201 16.7898C60.0801 16.7898 64.3851 17.4698 68.4351 18.7248" stroke="black" stroke-width="5" stroke-linecap="round" stroke-linejoin="round"/>
<path fill-rule="evenodd" clip-rule="evenodd" d="M107.669 51.1607C112.551 56.0422 112.551 63.9568 107.669 68.8383C102.787 73.7199 94.8729 73.7199 89.9914 68.8383C85.1098 63.9568 85.1098 56.0422 89.9914 51.1607C94.8729 46.2791 102.787 46.2791 107.669 51.1607Z" fill="#F5EAE3"/>
<path d="M107.669 51.1607C112.551 56.0422 112.551 63.9568 107.669 68.8383C102.787 73.7199 94.8729 73.7199 89.9914 68.8383C85.1098 63.9568 85.1098 56.0422 89.9914 51.1607C94.8729 46.2791 102.787 46.2791 107.669 51.1607" stroke="black" stroke-width="5" stroke-linecap="round" stroke-linejoin="round"/>
<path d="M44.1339 87.8457C49.0154 92.7273 49.0154 100.642 44.1339 105.523C39.2523 110.405 31.3378 110.405 26.4562 105.523C21.5747 100.642 21.5747 92.7273 26.4562 87.8457C31.3378 82.9642 39.2523 82.9642 44.1339 87.8457" stroke="#FF862A" stroke-width="5" stroke-linecap="round" stroke-linejoin="round"/>
<path fill-rule="evenodd" clip-rule="evenodd" d="M44.1339 14.4761C49.0154 19.3577 49.0154 27.2722 44.1339 32.1538C39.2523 37.0353 31.3378 37.0353 26.4562 32.1538C21.5747 27.2722 21.5747 19.3577 26.4562 14.4761C31.3378 9.59455 39.2523 9.59455 44.1339 14.4761Z" fill="#F5EAE3"/>
<path d="M44.1339 14.4761C49.0154 19.3577 49.0154 27.2722 44.1339 32.1538C39.2523 37.0353 31.3378 37.0353 26.4562 32.1538C21.5747 27.2722 21.5747 19.3577 26.4562 14.4761C31.3378 9.59455 39.2523 9.59455 44.1339 14.4761" stroke="black" stroke-width="5" stroke-linecap="round" stroke-linejoin="round"/>
</svg>
