<svg width="85" height="85" viewBox="0 0 85 85" fill="none" xmlns="http://www.w3.org/2000/svg">
<g filter="url(#filter0_i_1_277)">
<rect width="85" height="85" rx="42.5" fill="#F7F6F5"/>
</g>
<rect x="0.5" y="0.5" width="84" height="84" rx="42" stroke="#E2E2E2"/>
<path d="M59.3371 47.5754V32.4682C59.3371 31.4516 58.9332 30.4765 58.2143 29.7576C57.4954 29.0388 56.5204 28.6349 55.5037 28.6349H26.7537C25.7371 28.6349 24.7621 29.0388 24.0432 29.7576C23.3243 30.4765 22.9204 31.4516 22.9204 32.4682V49.7182C22.9204 50.2216 23.0196 50.7201 23.2122 51.1852C23.4048 51.6503 23.6872 52.0728 24.0432 52.4288C24.3991 52.7848 24.8217 53.0671 25.2868 53.2598C25.7519 53.4524 26.2503 53.5516 26.7537 53.5516H42.5873" fill="white"/>
<path d="M59.3371 47.5754V32.4682C59.3371 31.4516 58.9332 30.4765 58.2143 29.7576C57.4954 29.0388 56.5204 28.6349 55.5037 28.6349H26.7537C25.7371 28.6349 24.7621 29.0388 24.0432 29.7576C23.3243 30.4765 22.9204 31.4516 22.9204 32.4682V49.7182C22.9204 50.2216 23.0196 50.7201 23.2122 51.1852C23.4048 51.6503 23.6872 52.0728 24.0432 52.4288C24.3991 52.7848 24.8217 53.0671 25.2868 53.2598C25.7519 53.4524 26.2503 53.5516 26.7537 53.5516H42.5873" stroke="black" stroke-width="2.5" stroke-linecap="round" stroke-linejoin="round"/>
<path d="M44.5174 37.7008C45.1874 38.3709 45.6437 39.2247 45.8285 40.1542C46.0132 41.0837 45.9183 42.047 45.5556 42.9225C45.1929 43.798 44.5787 44.5463 43.7907 45.0728C43.0028 45.5992 42.0764 45.8802 41.1288 45.8802C40.1811 45.8802 39.2547 45.5992 38.4668 45.0728C37.6788 44.5463 37.0647 43.798 36.702 42.9225C36.3393 42.047 36.2443 41.0837 36.4291 40.1542C36.6139 39.2247 37.0701 38.3709 37.7401 37.7008C38.1851 37.2557 38.7133 36.9026 39.2948 36.6617C39.8762 36.4209 40.4994 36.2969 41.1288 36.2969C41.7581 36.2969 42.3813 36.4209 42.9627 36.6617C43.5442 36.9026 44.0725 37.2557 44.5174 37.7008" stroke="#FF862A" stroke-width="2.5" stroke-linecap="round" stroke-linejoin="round"/>
<path d="M28.6704 47.8016H32.5037" stroke="black" stroke-width="2.5" stroke-linecap="round" stroke-linejoin="round"/>
<path d="M49.7538 34.3849H53.5871" stroke="black" stroke-width="2.5" stroke-linecap="round" stroke-linejoin="round"/>
<path d="M48.554 49.4478C47.3676 49.4808 46.2116 49.8303 45.2056 50.46C44.1996 51.0897 43.3802 51.9768 42.832 53.0295C42.2839 54.0822 42.027 55.2622 42.0879 56.4475C42.1489 57.6328 42.5254 58.7803 43.1786 59.7712C43.8318 60.7621 44.7379 61.5605 45.8032 62.0838C46.8684 62.607 48.0542 62.8361 49.2377 62.7474C50.4212 62.6586 51.5595 62.2552 52.5348 61.5789C53.5101 60.9026 54.287 59.978 54.7851 58.9008" fill="white"/>
<path d="M48.554 49.4478C47.3676 49.4808 46.2116 49.8303 45.2056 50.46C44.1996 51.0897 43.3802 51.9768 42.832 53.0295C42.2839 54.0822 42.027 55.2622 42.0879 56.4475C42.1489 57.6328 42.5254 58.7803 43.1786 59.7712C43.8318 60.7621 44.7379 61.5605 45.8032 62.0838C46.8684 62.607 48.0542 62.8361 49.2377 62.7474C50.4212 62.6586 51.5595 62.2552 52.5348 61.5789C53.5101 60.9026 54.287 59.978 54.7851 58.9008" stroke="black" stroke-width="2.5" stroke-linecap="round" stroke-linejoin="round"/>
<path d="M54.5857 58.9178C53.2667 58.9178 51.9773 58.5267 50.8807 57.7938C49.7841 57.0609 48.9294 56.0193 48.4248 54.8006C47.9202 53.582 47.7884 52.241 48.046 50.9475C48.3036 49.6539 48.9391 48.4657 49.872 47.5333C50.8049 46.601 51.9934 45.9662 53.2872 45.7093C54.5809 45.4525 55.9217 45.5851 57.1401 46.0903C58.3585 46.5956 59.3996 47.4509 60.1319 48.548C60.8641 49.645 61.2545 50.9346 61.2538 52.2536C61.2522 54.0213 60.5491 55.716 59.2988 56.9656C58.0485 58.2152 56.3534 58.9173 54.5857 58.9178Z" fill="white"/>
<path d="M54.5857 58.9178C53.2667 58.9178 51.9773 58.5267 50.8807 57.7938C49.7841 57.0609 48.9294 56.0193 48.4248 54.8006C47.9202 53.582 47.7884 52.241 48.046 50.9475C48.3036 49.6539 48.9391 48.4657 49.872 47.5333C50.8049 46.601 51.9934 45.9662 53.2872 45.7093C54.5809 45.4525 55.9217 45.5851 57.1401 46.0903C58.3585 46.5956 59.3996 47.4509 60.1319 48.548C60.8641 49.645 61.2545 50.9346 61.2538 52.2536C61.2522 54.0213 60.5491 55.716 59.2988 56.9656C58.0485 58.2152 56.3534 58.9173 54.5857 58.9178" stroke="black" stroke-width="2.5" stroke-linecap="round" stroke-linejoin="round"/>
<defs>
<filter id="filter0_i_1_277" x="0" y="0" width="85" height="85" filterUnits="userSpaceOnUse" color-interpolation-filters="sRGB">
<feFlood flood-opacity="0" result="BackgroundImageFix"/>
<feBlend mode="normal" in="SourceGraphic" in2="BackgroundImageFix" result="shape"/>
<feColorMatrix in="SourceAlpha" type="matrix" values="0 0 0 0 0 0 0 0 0 0 0 0 0 0 0 0 0 0 127 0" result="hardAlpha"/>
<feMorphology radius="3" operator="erode" in="SourceAlpha" result="effect1_innerShadow_1_277"/>
<feOffset/>
<feComposite in2="hardAlpha" operator="arithmetic" k2="-1" k3="1"/>
<feColorMatrix type="matrix" values="0 0 0 0 1 0 0 0 0 1 0 0 0 0 1 0 0 0 0.45 0"/>
<feBlend mode="normal" in2="shape" result="effect1_innerShadow_1_277"/>
</filter>
</defs>
</svg>
