<svg width="60" height="60" viewBox="0 0 60 60" fill="none" xmlns="http://www.w3.org/2000/svg">
<g filter="url(#filter0_i_27_354)">
<rect y="0.0849609" width="59.5" height="59.5" rx="29.75" fill="#F7F6F5"/>
</g>
<rect x="0.35" y="0.434961" width="58.8" height="58.8" rx="29.4" stroke="#E2E2E2" stroke-width="0.7"/>
<path d="M41.5372 33.3882V22.8132C41.5372 22.1016 41.2545 21.419 40.7512 20.9158C40.248 20.4126 39.5655 20.1299 38.8538 20.1299H18.7288C18.0172 20.1299 17.3347 20.4126 16.8314 20.9158C16.3282 21.419 16.0455 22.1016 16.0455 22.8132V34.8882C16.0455 35.2406 16.1149 35.5895 16.2498 35.9151C16.3846 36.2406 16.5823 36.5364 16.8314 36.7856C17.0806 37.0348 17.3764 37.2324 17.702 37.3673C18.0275 37.5021 18.3765 37.5715 18.7288 37.5715H29.8123" fill="white"/>
<path d="M41.5372 33.3882V22.8132C41.5372 22.1016 41.2545 21.419 40.7512 20.9158C40.248 20.4126 39.5655 20.1299 38.8538 20.1299H18.7288C18.0172 20.1299 17.3347 20.4126 16.8314 20.9158C16.3282 21.419 16.0455 22.1016 16.0455 22.8132V34.8882C16.0455 35.2406 16.1149 35.5895 16.2498 35.9151C16.3846 36.2406 16.5823 36.5364 16.8314 36.7856C17.0806 37.0348 17.3764 37.2324 17.702 37.3673C18.0275 37.5021 18.3765 37.5715 18.7288 37.5715H29.8123" stroke="black" stroke-width="1.75" stroke-linecap="round" stroke-linejoin="round"/>
<path d="M31.1629 26.4759C31.6319 26.945 31.9513 27.5427 32.0807 28.1933C32.21 28.8439 32.1435 29.5183 31.8896 30.1311C31.6357 30.744 31.2058 31.2678 30.6543 31.6363C30.1027 32.0048 29.4542 32.2015 28.7909 32.2015C28.1275 32.2015 27.4791 32.0048 26.9275 31.6363C26.3759 31.2678 25.946 30.744 25.6921 30.1311C25.4382 29.5183 25.3717 28.8439 25.5011 28.1933C25.6304 27.5427 25.9498 26.945 26.4188 26.4759C26.7303 26.1643 27.1001 25.9172 27.5071 25.7486C27.9141 25.58 28.3503 25.4932 28.7909 25.4932C29.2314 25.4932 29.6677 25.58 30.0747 25.7486C30.4817 25.9172 30.8515 26.1643 31.1629 26.4759" stroke="#FF862A" stroke-width="1.75" stroke-linecap="round" stroke-linejoin="round"/>
<path d="M20.0705 33.5466H22.7538" stroke="black" stroke-width="1.75" stroke-linecap="round" stroke-linejoin="round"/>
<path d="M34.8279 24.1548H37.5112" stroke="black" stroke-width="1.75" stroke-linecap="round" stroke-linejoin="round"/>
<path d="M33.9886 34.6985C33.1582 34.7216 32.349 34.9663 31.6448 35.4071C30.9406 35.8479 30.3669 36.4689 29.9833 37.2057C29.5996 37.9426 29.4197 38.7686 29.4624 39.5983C29.505 40.428 29.7686 41.2312 30.2258 41.9249C30.6831 42.6185 31.3173 43.1774 32.063 43.5437C32.8087 43.91 33.6387 44.0703 34.4672 44.0082C35.2957 43.9461 36.0925 43.6637 36.7752 43.1903C37.4579 42.7169 38.0017 42.0697 38.3504 41.3156" fill="white"/>
<path d="M33.9886 34.6985C33.1582 34.7216 32.349 34.9663 31.6448 35.4071C30.9406 35.8479 30.3669 36.4689 29.9833 37.2057C29.5996 37.9426 29.4197 38.7686 29.4624 39.5983C29.505 40.428 29.7686 41.2312 30.2258 41.9249C30.6831 42.6185 31.3173 43.1774 32.063 43.5437C32.8087 43.91 33.6387 44.0703 34.4672 44.0082C35.2957 43.9461 36.0925 43.6637 36.7752 43.1903C37.4579 42.7169 38.0017 42.0697 38.3504 41.3156" stroke="black" stroke-width="1.75" stroke-linecap="round" stroke-linejoin="round"/>
<path d="M38.2104 41.3282C37.2871 41.3282 36.3846 41.0544 35.6169 40.5414C34.8493 40.0284 34.251 39.2993 33.8978 38.4462C33.5446 37.5931 33.4523 36.6545 33.6326 35.749C33.813 34.8435 34.2578 34.0118 34.9108 33.3591C35.5639 32.7064 36.3958 32.2621 37.3014 32.0823C38.2071 31.9025 39.1457 31.9953 39.9985 32.349C40.8514 32.7027 41.5802 33.3014 42.0927 34.0693C42.6053 34.8373 42.8786 35.74 42.8781 36.6633C42.877 37.9006 42.3848 39.087 41.5096 39.9617C40.6344 40.8364 39.4478 41.3279 38.2104 41.3282Z" fill="white"/>
<path d="M38.2104 41.3282C37.2871 41.3282 36.3846 41.0544 35.6169 40.5414C34.8493 40.0284 34.251 39.2993 33.8978 38.4462C33.5446 37.5931 33.4523 36.6545 33.6326 35.749C33.813 34.8435 34.2578 34.0118 34.9108 33.3591C35.5639 32.7064 36.3958 32.2621 37.3014 32.0823C38.2071 31.9025 39.1457 31.9953 39.9985 32.349C40.8514 32.7027 41.5802 33.3014 42.0927 34.0693C42.6053 34.8373 42.8786 35.74 42.8781 36.6633C42.877 37.9006 42.3848 39.087 41.5096 39.9617C40.6344 40.8364 39.4478 41.3279 38.2104 41.3282" stroke="black" stroke-width="1.75" stroke-linecap="round" stroke-linejoin="round"/>
<defs>
<filter id="filter0_i_27_354" x="0" y="0.0849609" width="59.5" height="59.5" filterUnits="userSpaceOnUse" color-interpolation-filters="sRGB">
<feFlood flood-opacity="0" result="BackgroundImageFix"/>
<feBlend mode="normal" in="SourceGraphic" in2="BackgroundImageFix" result="shape"/>
<feColorMatrix in="SourceAlpha" type="matrix" values="0 0 0 0 0 0 0 0 0 0 0 0 0 0 0 0 0 0 127 0" result="hardAlpha"/>
<feMorphology radius="2.1" operator="erode" in="SourceAlpha" result="effect1_innerShadow_27_354"/>
<feOffset/>
<feComposite in2="hardAlpha" operator="arithmetic" k2="-1" k3="1"/>
<feColorMatrix type="matrix" values="0 0 0 0 1 0 0 0 0 1 0 0 0 0 1 0 0 0 0.45 0"/>
<feBlend mode="normal" in2="shape" result="effect1_innerShadow_27_354"/>
</filter>
</defs>
</svg>
