<svg width="73" height="73" viewBox="0 0 73 73" fill="none" xmlns="http://www.w3.org/2000/svg">
<path fill-rule="evenodd" clip-rule="evenodd" d="M15.7993 9.97998H33.7993C37.1143 9.97998 39.7993 12.665 39.7993 15.98V30.194C39.7993 33.509 37.1143 36.194 33.7993 36.194H15.7993C12.4843 36.194 9.79926 33.509 9.79926 30.194V15.98C9.79926 12.665 12.4843 9.97998 15.7993 9.97998Z" fill="#F5EAE3" stroke="black" stroke-width="3" stroke-linecap="round" stroke-linejoin="round"/>
<path d="M63.7992 36.194H55.1622C51.8472 36.194 49.1622 33.509 49.1622 30.194V15.98C49.1622 12.665 51.8472 9.97998 55.1622 9.97998H63.7992" stroke="black" stroke-width="3" stroke-linecap="round" stroke-linejoin="round"/>
<path d="M9.79926 63.98V51.98C9.79926 48.665 12.4843 45.98 15.7993 45.98H33.7993C37.1143 45.98 39.7993 48.665 39.7993 51.98V63.98" stroke="black" stroke-width="3" stroke-linecap="round" stroke-linejoin="round"/>
<path d="M48.7993 63.98V51.98C48.7993 48.665 51.4843 45.98 54.7993 45.98H63.7993" stroke="#FF862A" stroke-width="3" stroke-linecap="round" stroke-linejoin="round"/>
</svg>
