<svg width="120" height="120" viewBox="0 0 120 120" fill="none" xmlns="http://www.w3.org/2000/svg">
<path fill-rule="evenodd" clip-rule="evenodd" d="M25 15H55C60.525 15 65 19.475 65 25V48.69C65 54.215 60.525 58.69 55 58.69H25C19.475 58.69 15 54.215 15 48.69V25C15 19.475 19.475 15 25 15Z" fill="#F5EAE3" stroke="black" stroke-width="5" stroke-linecap="round" stroke-linejoin="round"/>
<path d="M105 58.69H90.605C85.08 58.69 80.605 54.215 80.605 48.69V25C80.605 19.475 85.08 15 90.605 15H105" stroke="black" stroke-width="5" stroke-linecap="round" stroke-linejoin="round"/>
<path d="M15 105V85C15 79.475 19.475 75 25 75H55C60.525 75 65 79.475 65 85V105" stroke="black" stroke-width="5" stroke-linecap="round" stroke-linejoin="round"/>
<path d="M80 105V85C80 79.475 84.475 75 90 75H105" stroke="#FF862A" stroke-width="5" stroke-linecap="round" stroke-linejoin="round"/>
</svg>
