<svg width="85" height="85" viewBox="0 0 85 85" fill="none" xmlns="http://www.w3.org/2000/svg">
<g filter="url(#filter0_i_1_305)">
<rect width="85" height="85" rx="42.5" fill="#F7F6F5"/>
</g>
<rect x="0.5" y="0.5" width="84" height="84" rx="42" stroke="#E2E2E2"/>
<path fill-rule="evenodd" clip-rule="evenodd" d="M32.7138 44.9149L26.0764 43.347C25.3461 43.1745 25.0893 42.268 25.6183 41.737L30.8968 36.4585C31.2514 36.104 31.7324 35.9008 32.2365 35.897L38.1878 35.8452" fill="white"/>
<path d="M32.7138 44.9149L26.0764 43.347C25.3461 43.1745 25.0893 42.268 25.6183 41.737L30.8968 36.4585C31.2514 36.104 31.7324 35.9008 32.2365 35.897L38.1878 35.8452" stroke="black" stroke-width="2.5" stroke-linecap="round" stroke-linejoin="round"/>
<path fill-rule="evenodd" clip-rule="evenodd" d="M41.084 53.287L42.6518 59.9244C42.8243 60.6547 43.7309 60.9115 44.2618 60.3825L49.5403 55.104C49.8949 54.7494 50.0981 54.2683 50.1019 53.7642L50.1537 47.813" fill="white"/>
<path d="M41.084 53.287L42.6518 59.9244C42.8243 60.6547 43.7309 60.9115 44.2618 60.3825L49.5403 55.104C49.8949 54.7494 50.0981 54.2683 50.1019 53.7642L50.1537 47.813" stroke="black" stroke-width="2.5" stroke-linecap="round" stroke-linejoin="round"/>
<path fill-rule="evenodd" clip-rule="evenodd" d="M58.1009 37.2023L59.6496 29.7503C60.0712 27.7224 58.2772 25.9284 56.2494 26.3501L48.7974 27.8988C46.6028 28.3549 44.5903 29.4417 43.0072 31.0268L36.893 37.139C34.5604 39.4716 33.0424 42.4961 32.5632 45.7602L32.5422 45.9001C32.2393 47.9835 32.937 50.0861 34.4243 51.5753C35.9117 53.0627 38.0162 53.7603 40.0996 53.4556L40.2395 53.4345C43.5036 52.9573 46.5281 51.4374 48.8607 49.1048L54.9729 42.9925C56.558 41.4094 57.6447 39.3968 58.1009 37.2023Z" fill="white" stroke="black" stroke-width="2.5" stroke-linecap="round" stroke-linejoin="round"/>
<path d="M45.6836 29.0352C50.113 32.0558 53.9444 35.8872 56.9651 40.3167" stroke="black" stroke-width="2.5" stroke-linecap="round" stroke-linejoin="round"/>
<path d="M44.8008 41.1982L31.25 54.7491" stroke="#FF862A" stroke-width="2.5" stroke-linecap="round" stroke-linejoin="round"/>
<defs>
<filter id="filter0_i_1_305" x="0" y="0" width="85" height="85" filterUnits="userSpaceOnUse" color-interpolation-filters="sRGB">
<feFlood flood-opacity="0" result="BackgroundImageFix"/>
<feBlend mode="normal" in="SourceGraphic" in2="BackgroundImageFix" result="shape"/>
<feColorMatrix in="SourceAlpha" type="matrix" values="0 0 0 0 0 0 0 0 0 0 0 0 0 0 0 0 0 0 127 0" result="hardAlpha"/>
<feMorphology radius="3" operator="erode" in="SourceAlpha" result="effect1_innerShadow_1_305"/>
<feOffset/>
<feComposite in2="hardAlpha" operator="arithmetic" k2="-1" k3="1"/>
<feColorMatrix type="matrix" values="0 0 0 0 1 0 0 0 0 1 0 0 0 0 1 0 0 0 0.45 0"/>
<feBlend mode="normal" in2="shape" result="effect1_innerShadow_1_305"/>
</filter>
</defs>
</svg>
