<svg width="72" height="73" viewBox="0 0 72 73" fill="none" xmlns="http://www.w3.org/2000/svg">
<path d="M41.3037 33.9262C44.2326 36.8551 44.2326 41.6039 41.3037 44.5328C38.3748 47.4617 33.626 47.4617 30.6971 44.5328C27.7682 41.6038 27.7682 36.8551 30.6971 33.9262C33.626 30.9973 38.3748 30.9973 41.3037 33.9262" stroke="#FF862A" stroke-width="3" stroke-linecap="round" stroke-linejoin="round"/>
<path fill-rule="evenodd" clip-rule="evenodd" d="M57.7617 15.9262C60.6906 18.8551 60.6906 23.6039 57.7617 26.5328C54.8327 29.4617 50.084 29.4617 47.1551 26.5328C44.2261 23.6038 44.2261 18.8551 47.1551 15.9262C50.084 12.9973 54.8327 12.9973 57.7617 15.9262Z" fill="#F5EAE3"/>
<path d="M57.7617 15.9262C60.6906 18.8551 60.6906 23.6039 57.7617 26.5328C54.8327 29.4617 50.084 29.4617 47.1551 26.5328C44.2261 23.6038 44.2261 18.8551 47.1551 15.9262C50.084 12.9973 54.8327 12.9973 57.7617 15.9262" stroke="black" stroke-width="3" stroke-linecap="round" stroke-linejoin="round"/>
<path d="M54.0003 37.73C58.5993 37.73 63.0003 39.329 66.0003 41.729" stroke="black" stroke-width="3" stroke-linecap="round" stroke-linejoin="round"/>
<path fill-rule="evenodd" clip-rule="evenodd" d="M24.8456 15.9262C27.7745 18.8551 27.7745 23.6039 24.8456 26.5328C21.9167 29.4617 17.1679 29.4617 14.239 26.5328C11.3101 23.6038 11.3101 18.8551 14.239 15.9262C17.1679 12.9973 21.9167 12.9973 24.8456 15.9262Z" fill="#F5EAE3"/>
<path d="M24.8456 15.9262C27.7745 18.8551 27.7745 23.6039 24.8456 26.5328C21.9167 29.4617 17.1679 29.4617 14.239 26.5328C11.3101 23.6038 11.3101 18.8551 14.239 15.9262C17.1679 12.9973 21.9167 12.9973 24.8456 15.9262" stroke="black" stroke-width="3" stroke-linecap="round" stroke-linejoin="round"/>
<path d="M6.00026 41.729C9.00026 39.329 13.4013 37.73 18.0003 37.73" stroke="black" stroke-width="3" stroke-linecap="round" stroke-linejoin="round"/>
<path d="M49.7732 60.23C46.2782 57.527 41.2562 55.73 36.0002 55.73C30.7442 55.73 25.7222 57.527 22.2272 60.23" stroke="#FF862A" stroke-width="3" stroke-linecap="round" stroke-linejoin="round"/>
</svg>
