<svg width="120" height="120" viewBox="0 0 120 120" fill="none" xmlns="http://www.w3.org/2000/svg">
<path d="M68.839 54.9107C73.7206 59.7922 73.7206 67.7068 68.839 72.5883C63.9574 77.4699 56.0429 77.4699 51.1613 72.5883C46.2798 67.7068 46.2798 59.7922 51.1613 54.9107C56.0429 50.0291 63.9575 50.0291 68.839 54.9107" stroke="#FF862A" stroke-width="5" stroke-linecap="round" stroke-linejoin="round"/>
<path fill-rule="evenodd" clip-rule="evenodd" d="M96.269 24.9107C101.151 29.7922 101.151 37.7068 96.269 42.5883C91.3874 47.4699 83.4729 47.4699 78.5913 42.5883C73.7098 37.7068 73.7098 29.7922 78.5913 24.9107C83.4729 20.0291 91.3874 20.0291 96.269 24.9107Z" fill="#F5EAE3"/>
<path d="M96.269 24.9107C101.151 29.7922 101.151 37.7068 96.269 42.5883C91.3874 47.4699 83.4729 47.4699 78.5913 42.5883C73.7098 37.7068 73.7098 29.7922 78.5913 24.9107C83.4729 20.0291 91.3874 20.0291 96.269 24.9107" stroke="white" stroke-width="5" stroke-linecap="round" stroke-linejoin="round"/>
<path d="M90 61.25C97.665 61.25 105 63.915 110 67.915" stroke="white" stroke-width="5" stroke-linecap="round" stroke-linejoin="round"/>
<path fill-rule="evenodd" clip-rule="evenodd" d="M41.4088 24.9107C46.2904 29.7922 46.2904 37.7068 41.4088 42.5883C36.5273 47.4699 28.6127 47.4699 23.7312 42.5883C18.8496 37.7068 18.8496 29.7922 23.7312 24.9107C28.6127 20.0291 36.5273 20.0291 41.4088 24.9107Z" fill="#F5EAE3"/>
<path d="M41.4088 24.9107C46.2904 29.7922 46.2904 37.7068 41.4088 42.5883C36.5273 47.4699 28.6127 47.4699 23.7312 42.5883C18.8496 37.7068 18.8496 29.7922 23.7312 24.9107C28.6127 20.0291 36.5273 20.0291 41.4088 24.9107" stroke="white" stroke-width="5" stroke-linecap="round" stroke-linejoin="round"/>
<path d="M10 67.915C15 63.915 22.335 61.25 30 61.25" stroke="white" stroke-width="5" stroke-linecap="round" stroke-linejoin="round"/>
<path d="M82.955 98.75C77.13 94.245 68.76 91.25 60 91.25C51.24 91.25 42.87 94.245 37.045 98.75" stroke="#FF862A" stroke-width="5" stroke-linecap="round" stroke-linejoin="round"/>
</svg>
