<svg width="18" height="11" viewBox="0 0 18 11" fill="none" xmlns="http://www.w3.org/2000/svg">
<path d="M5.00738 0.833344C7.77287 0.833344 10.0146 3.0907 10.0146 5.8751C10.0146 8.65948 7.77269 10.9167 5.00738 10.9167C2.24205 10.9167 0 8.65948 0 5.8751C0 3.0907 2.24187 0.833344 5.00738 0.833344ZM13.0038 1.12867C14.3866 1.12867 15.5075 3.25351 15.5075 5.8751C15.5075 8.49604 14.3867 10.6215 13.004 10.6215C11.6212 10.6215 10.5003 8.49604 10.5003 5.8751C10.5003 3.25419 11.621 1.12867 13.0038 1.12867ZM16.8739 1.62305C17.3601 1.62305 17.7545 3.52672 17.7545 5.8751C17.7545 8.22278 17.3603 10.1272 16.8739 10.1272C16.3875 10.1272 15.9935 8.22333 15.9935 5.8751C15.9935 3.5269 16.3877 1.62305 16.8739 1.62305Z" fill="black"/>
</svg>
