<svg width="24" height="24" viewBox="0 0 24 24" fill="none" xmlns="http://www.w3.org/2000/svg">
<path d="M21.0038 9.49893V6.49768C21.0038 5.1164 19.8841 3.99664 18.5028 3.99664H5.49738C4.11609 3.99664 2.99634 5.1164 2.99634 6.49768V9.99914" stroke="white" stroke-width="1.5" stroke-linecap="round" stroke-linejoin="round"/>
<path d="M21.0039 14.501V17.5023C21.0039 18.8836 19.8842 20.0033 18.5029 20.0033H10.9998" stroke="white" stroke-width="1.5" stroke-linecap="round" stroke-linejoin="round"/>
<path d="M2.9963 20.0034V14.0009" stroke="white" stroke-width="1.5" stroke-linecap="round" stroke-linejoin="round"/>
<path d="M5.05758 13.0004V14.0008" stroke="white" stroke-width="1.5" stroke-linecap="round" stroke-linejoin="round"/>
<path d="M5.05758 20.0034V21.0038" stroke="white" stroke-width="1.5" stroke-linecap="round" stroke-linejoin="round"/>
<path fill-rule="evenodd" clip-rule="evenodd" d="M2.99634 17.0021H6.4978C7.32657 17.0021 7.99842 17.6739 7.99842 18.5027V18.5027C7.99842 19.3315 7.32657 20.0033 6.4978 20.0033H2.99634V17.0021Z" stroke="white" stroke-width="1.5" stroke-linecap="round" stroke-linejoin="round"/>
<path fill-rule="evenodd" clip-rule="evenodd" d="M2.99634 14.0009H6.14765C6.97642 14.0009 7.64828 14.6727 7.64828 15.5015V15.5015C7.64828 16.3303 6.97642 17.0021 6.14765 17.0021H2.99634V14.0009Z" stroke="white" stroke-width="1.5" stroke-linecap="round" stroke-linejoin="round"/>
<path fill-rule="evenodd" clip-rule="evenodd" d="M18.5028 9.49896H21.0038C21.5563 9.49896 22.0042 9.94686 22.0042 10.4994V13.5006C22.0042 14.0531 21.5563 14.501 21.0038 14.501H18.5028C17.1215 14.501 16.0017 13.3813 16.0017 12V12C16.0017 10.6187 17.1215 9.49896 18.5028 9.49896V9.49896Z" stroke="white" stroke-width="1.5" stroke-linecap="round" stroke-linejoin="round"/>
<path d="M7.99854 8.99874H13.0006" stroke="white" stroke-width="1.5" stroke-linecap="round" stroke-linejoin="round"/>
</svg>
